<svg width="80" height="80" viewBox="0 0 80 80" fill="none" xmlns="http://www.w3.org/2000/svg">
<g clip-path="url(#clip0_4_809)">
<path d="M40 80C62.0914 80 80 62.0914 80 40C80 17.9086 62.0914 0 40 0C17.9086 0 0 17.9086 0 40C0 62.0914 17.9086 80 40 80Z" fill="#F3BA2F"/>
<path d="M30.29 36.01L40 26.3L49.715 36.015L55.365 30.365L40 15L24.64 30.36L30.29 36.01ZM15 40L20.65 34.35L26.3 40L20.65 45.65L15 40ZM30.29 43.99L40 53.7L49.715 43.985L55.365 49.6325L40 65L24.64 49.64L24.6325 49.6325L30.29 43.99ZM53.7 40L59.35 34.35L65 40L59.35 45.65L53.7 40ZM45.73 39.995H45.735V40L40 45.735L34.2725 40.01L34.2625 40L34.2725 39.9925L35.275 38.9875L35.7625 38.5L40 34.265L45.7325 39.9975L45.73 39.995Z" fill="white"/>
</g>
<defs>
<clipPath id="clip0_4_809">
<rect width="80" height="80" fill="white"/>
</clipPath>
</defs>
</svg>
