<svg width="80" height="80" viewBox="0 0 80 80" fill="none" xmlns="http://www.w3.org/2000/svg">
<g clip-path="url(#clip0_4_853)">
<path d="M40 80C62.0914 80 80 62.0914 80 40C80 17.9086 62.0914 0 40 0C17.9086 0 0 17.9086 0 40C0 62.0914 17.9086 80 40 80Z" fill="#F7931A"/>
<path d="M57.9725 35.05C58.7575 29.81 54.765 26.9925 49.31 25.1125L51.08 18.0125L46.76 16.9375L45.035 23.85C43.9 23.565 42.735 23.3 41.5725 23.035L43.31 16.0775L38.99 15L37.22 22.0975C36.28 21.8825 35.355 21.6725 34.46 21.4475L34.465 21.425L28.505 19.9375L27.355 24.5525C27.355 24.5525 30.5625 25.2875 30.495 25.3325C32.245 25.77 32.56 26.9275 32.5075 27.8475L30.4925 35.935C30.6125 35.965 30.7675 36.01 30.9425 36.0775L30.485 35.965L27.66 47.295C27.445 47.825 26.9025 48.6225 25.6775 48.32C25.7225 48.3825 22.5375 47.5375 22.5375 47.5375L20.3925 52.4825L26.0175 53.885C27.0625 54.1475 28.0875 54.4225 29.095 54.68L27.3075 61.86L31.625 62.935L33.395 55.835C34.575 56.1525 35.72 56.4475 36.84 56.7275L35.075 63.7975L39.395 64.8725L41.1825 57.7075C48.5525 59.1025 54.0925 58.54 56.425 51.875C58.305 46.51 56.3325 43.4125 52.455 41.395C55.28 40.745 57.405 38.8875 57.9725 35.05ZM48.0975 48.895C46.765 54.2625 37.7275 51.36 34.7975 50.6325L37.1725 41.12C40.1025 41.8525 49.495 43.3 48.0975 48.895ZM49.435 34.9725C48.2175 39.855 40.6975 37.3725 38.26 36.765L40.41 28.14C42.8475 28.7475 50.705 29.88 49.435 34.9725Z" fill="white"/>
</g>
<defs>
<clipPath id="clip0_4_853">
<rect width="80" height="80" fill="white"/>
</clipPath>
</defs>
</svg>
