<svg width="80" height="80" viewBox="0 0 80 80" fill="none" xmlns="http://www.w3.org/2000/svg">
<g clip-path="url(#clip0_4_858)">
<path d="M40 80C62.0914 80 80 62.0914 80 40C80 17.9086 62.0914 0 40 0C17.9086 0 0 17.9086 0 40C0 62.0914 17.9086 80 40 80Z" fill="#82BD39"/>
<path d="M36.0075 48.4L40 53.66V65L25 58.3425V29.0475C25 28.615 25.1925 28.2025 25.53 27.915L27.2375 26.4525C27.402 26.3102 27.5939 26.2032 27.8014 26.1381C28.0089 26.073 28.2275 26.0511 28.4438 26.0738C28.6601 26.0965 28.8694 26.1634 29.0588 26.2702C29.2482 26.3771 29.4137 26.5217 29.545 26.695L43.2075 44.605L50.755 49.22V24.52L44.085 21.1925L43.76 36.6825L40.23 32L40.07 15L55 21.9475V51.1075L51.6075 53.9025L40.9225 47.935L29.0625 32.3775L28.9 56.0125L35.9625 59.63L36.0075 48.4Z" fill="white"/>
</g>
<defs>
<clipPath id="clip0_4_858">
<rect width="80" height="80" fill="white"/>
</clipPath>
</defs>
</svg>
