<svg width="80" height="80" viewBox="0 0 80 80" fill="none" xmlns="http://www.w3.org/2000/svg">
<g clip-path="url(#clip0_4_863)">
<path d="M40 80C62.0914 80 80 62.0914 80 40C80 17.9086 62.0914 0 40 0C17.9086 0 0 17.9086 0 40C0 62.0914 17.9086 80 40 80Z" fill="#14C8FF"/>
<path d="M62.7 28.6953C64.2825 29.9778 65.28 32.6303 64.93 34.5778L61.53 53.3878C61.175 55.3478 59.3 57.5053 57.37 58.1828L38.8225 64.6953C36.8925 65.3728 34.0225 64.8828 32.4425 63.6003L17.2975 51.3078C15.715 50.0253 14.715 47.3853 15.0725 45.4253L18.4725 26.6153C18.825 24.6553 20.7 22.5003 22.6325 21.8203L41.1825 15.3053C43.115 14.6253 45.9825 15.1203 47.565 16.4003L62.7 28.6953ZM46.9225 37.1403L47.6775 33.3153L40.5975 33.3278L41.5975 28.2878H39.31C37.6599 30.8165 35.2566 32.7624 32.44 33.8503L31.7975 37.1478H34.8925C34.8925 37.1478 33.845 41.8828 33.4925 43.6303C32.6175 48.0803 34.8175 51.2353 38.1975 51.2353H43.9175L44.9175 47.0103H40.1325C38.0075 47.0103 38.12 45.8478 38.5325 43.7853L39.85 37.1303L46.9225 37.1403Z" fill="white"/>
</g>
<defs>
<clipPath id="clip0_4_863">
<rect width="80" height="80" fill="white"/>
</clipPath>
</defs>
</svg>

